# xmcd
#
# Track frame offsets: 
#        150
#        13677
#        20480
#        26645
#        32355
#        51842
#        66630
#        70542
#        73865
#        78300
#        84610
#        98925
#        112890
#        126737
#        141097
#        155955
#        168545
#
# Disc length: 2395 seconds
#
# Revision: 0
# Processed by: cddbd v1.5.2PL0 Copyright (c) Steve Scherf et al.
# Submitted via: ExactAudioCopy v0.99pb5
#
DISCID=f1095911
DTITLE=Leadbelly - Huddie Ledbetter [CD2]
DYEAR=1973
DGENRE=Blues
TTITLE0=Out On The Western Plains
TTITLE1=No Good Rider
TTITLE2=Big Fat Woman
TTITLE3=Bottle It Up And Go
TTITLE4=John Hardy (#1)
TTITLE5=John Hardy (#2)
TTITLE6=Bring Me A Li'l Water, Silvy
TTITLE7=Julie And Johnson
TTITLE8=Line 'Em
TTITLE9=Whoa Back Buck
TTITLE10=Roberta
TTITLE11=Bill Brady
TTITLE12=Where Did You Sleep Last Night?
TTITLE13=Yellow Gal
TTITLE14=In New Orleans
TTITLE15=Pretty Flowers In My Back Yard
TTITLE16=Pretty Flowers In My Back Yard (With Josh White)
EXTD=
EXTT0=
EXTT1=
EXTT2=
EXTT3=
EXTT4=
EXTT5=
EXTT6=
EXTT7=
EXTT8=
EXTT9=
EXTT10=
EXTT11=
EXTT12=
EXTT13=
EXTT14=
EXTT15=
EXTT16=
PLAYORDER=
